<svg width="16" height="16" viewBox="0 0 16 16" fill="none" xmlns="http://www.w3.org/2000/svg">
<g id="Frame">
<path id="Vector" d="M7.99992 1.33325C4.31792 1.33325 1.33325 4.31792 1.33325 7.99992C1.33325 11.6199 4.21792 14.5653 7.81325 14.6639L7.99992 14.6666H15.3333L13.0353 12.3693C14.0894 11.1579 14.669 9.6057 14.6666 7.99992C14.6666 4.31792 11.6819 1.33325 7.99992 1.33325ZM7.99992 2.66659C9.41441 2.66659 10.771 3.22849 11.7712 4.22868C12.7713 5.22888 13.3333 6.58543 13.3333 7.99992C13.3333 9.23125 12.9159 10.3946 12.1646 11.3319L12.0286 11.4946L11.2139 12.4333L12.1146 13.3333H8.01792L7.84992 13.3313C6.44825 13.2929 5.11809 12.704 4.14735 11.6922C3.1766 10.6804 2.64338 9.32696 2.6631 7.92491C2.68282 6.52286 3.2539 5.18497 4.25271 4.20085C5.25153 3.21672 6.59773 2.66553 7.99992 2.66659ZM10.2999 9.33325C9.83325 10.1266 8.98659 10.6666 7.99992 10.6666C7.55775 10.6662 7.12269 10.5553 6.73429 10.344C6.34588 10.1326 6.01645 9.82761 5.77592 9.45658L5.69992 9.33325H4.58659C4.84977 10.0086 5.30736 10.5907 5.90147 11.0058C6.49557 11.421 7.19948 11.6506 7.92413 11.6656C8.64877 11.6806 9.36157 11.4803 9.97233 11.09C10.5831 10.6998 11.0644 10.1371 11.3553 9.47325L11.4133 9.33325H10.2999Z" fill="black"/>
</g>
</svg>
